<svg width="1200" height="900" viewBox="0 0 1200 900" fill="none" xmlns="http://www.w3.org/2000/svg">
  <rect width="1200" height="900" rx="48" fill="#EEF4FF"/>
  <rect x="64" y="64" width="1072" height="772" rx="40" fill="#F7FAFF" stroke="#D8E5FF" stroke-width="2"/>
  <rect x="162" y="164" width="268" height="386" rx="28" fill="#FFFFFF" stroke="#D8E5FF" stroke-width="2"/>
  <rect x="466" y="164" width="228" height="248" rx="28" fill="#FFFFFF" stroke="#D8E5FF" stroke-width="2"/>
  <rect x="726" y="164" width="312" height="248" rx="28" fill="#0B1220"/>
  <rect x="466" y="444" width="572" height="278" rx="28" fill="url(#grad3)"/>
  <rect x="212" y="218" width="168" height="280" rx="24" fill="#0B1220"/>
  <rect x="516" y="214" width="128" height="140" rx="20" fill="#2F6BFF"/>
  <path d="M804 250H958" stroke="#FFFFFF" stroke-width="14" stroke-linecap="round"/>
  <path d="M804 300H918" stroke="#93DFFF" stroke-width="12" stroke-linecap="round"/>
  <path d="M528 534H942" stroke="#0B1220" stroke-width="14" stroke-linecap="round"/>
  <path d="M528 586H896" stroke="#38537B" stroke-width="12" stroke-linecap="round"/>
  <text x="500" y="106" fill="#0B1220" font-family="Arial, sans-serif" font-size="42" font-weight="700">Hardware Systems</text>
  <text x="500" y="770" fill="#0B1220" font-family="Arial, sans-serif" font-size="28">Endpoint supply, setup, servers, storage, and printer deployment.</text>
  <defs>
    <linearGradient id="grad3" x1="466" y1="444" x2="1038" y2="722" gradientUnits="userSpaceOnUse">
      <stop stop-color="#DDE8FF"/>
      <stop offset="1" stop-color="#DDFBF6"/>
    </linearGradient>
  </defs>
</svg>
