<svg width="1200" height="900" viewBox="0 0 1200 900" fill="none" xmlns="http://www.w3.org/2000/svg">
  <rect width="1200" height="900" rx="48" fill="#EEF4FF"/>
  <rect x="64" y="64" width="1072" height="772" rx="40" fill="#F7FAFF" stroke="#D8E5FF" stroke-width="2"/>
  <path d="M132 246H1068" stroke="#C8DAFF" stroke-width="2" stroke-dasharray="10 10"/>
  <path d="M132 448H1068" stroke="#C8DAFF" stroke-width="2" stroke-dasharray="10 10"/>
  <path d="M132 650H1068" stroke="#C8DAFF" stroke-width="2" stroke-dasharray="10 10"/>
  <rect x="152" y="146" width="312" height="138" rx="28" fill="#0B1220"/>
  <rect x="496" y="146" width="552" height="138" rx="28" fill="url(#grad1)"/>
  <rect x="152" y="334" width="390" height="388" rx="28" fill="#FFFFFF" stroke="#D8E5FF" stroke-width="2"/>
  <rect x="574" y="334" width="474" height="164" rx="28" fill="#FFFFFF" stroke="#D8E5FF" stroke-width="2"/>
  <rect x="574" y="526" width="474" height="196" rx="28" fill="#FFFFFF" stroke="#D8E5FF" stroke-width="2"/>
  <circle cx="284" cy="528" r="22" fill="#2F6BFF"/>
  <circle cx="348" cy="456" r="18" fill="#19D5FF"/>
  <circle cx="402" cy="596" r="20" fill="#18B67E"/>
  <path d="M284 528L348 456L402 596" stroke="#2F6BFF" stroke-width="8" stroke-linecap="round"/>
  <path d="M676 416H936" stroke="#0B1220" stroke-width="12" stroke-linecap="round"/>
  <path d="M676 458H864" stroke="#93A4B8" stroke-width="10" stroke-linecap="round"/>
  <path d="M676 608H948" stroke="#0B1220" stroke-width="12" stroke-linecap="round"/>
  <path d="M676 650H886" stroke="#93A4B8" stroke-width="10" stroke-linecap="round"/>
  <text x="184" y="210" fill="#FFFFFF" font-family="Arial, sans-serif" font-size="40" font-weight="700">Infrastructure</text>
  <text x="528" y="214" fill="#0B1220" font-family="Arial, sans-serif" font-size="42" font-weight="700">Site systems and control layers</text>
  <text x="528" y="260" fill="#38537B" font-family="Arial, sans-serif" font-size="26">Access control, CCTV, data centre readiness, gates, AV, and deployment supply.</text>
  <defs>
    <linearGradient id="grad1" x1="496" y1="146" x2="1048" y2="284" gradientUnits="userSpaceOnUse">
      <stop stop-color="#DDE8FF"/>
      <stop offset="1" stop-color="#C9F7FF"/>
    </linearGradient>
  </defs>
</svg>
