<svg width="1200" height="900" viewBox="0 0 1200 900" fill="none" xmlns="http://www.w3.org/2000/svg">
  <rect width="1200" height="900" rx="48" fill="#EEF4FF"/>
  <rect x="64" y="64" width="1072" height="772" rx="40" fill="#F7FAFF" stroke="#D8E5FF" stroke-width="2"/>
  <rect x="146" y="164" width="368" height="572" rx="32" fill="#0B1220"/>
  <rect x="550" y="164" width="488" height="172" rx="28" fill="#FFFFFF" stroke="#D8E5FF" stroke-width="2"/>
  <rect x="550" y="376" width="488" height="160" rx="28" fill="#FFFFFF" stroke="#D8E5FF" stroke-width="2"/>
  <rect x="550" y="576" width="488" height="160" rx="28" fill="url(#grad5)"/>
  <circle cx="330" cy="310" r="88" fill="#2F6BFF"/>
  <circle cx="330" cy="500" r="88" fill="#19D5FF"/>
  <path d="M638 244H942" stroke="#0B1220" stroke-width="14" stroke-linecap="round"/>
  <path d="M638 288H866" stroke="#93A4B8" stroke-width="10" stroke-linecap="round"/>
  <path d="M638 454H948" stroke="#0B1220" stroke-width="14" stroke-linecap="round"/>
  <path d="M638 498H890" stroke="#93A4B8" stroke-width="10" stroke-linecap="round"/>
  <path d="M638 654H962" stroke="#0B1220" stroke-width="14" stroke-linecap="round"/>
  <path d="M638 698H890" stroke="#38537B" stroke-width="10" stroke-linecap="round"/>
  <text x="222" y="704" fill="#FFFFFF" font-family="Arial, sans-serif" font-size="38" font-weight="700">Managed and Advisory</text>
  <defs>
    <linearGradient id="grad5" x1="550" y1="576" x2="1038" y2="736" gradientUnits="userSpaceOnUse">
      <stop stop-color="#E6ECFF"/>
      <stop offset="1" stop-color="#D7FBFF"/>
    </linearGradient>
  </defs>
</svg>
