<?xml version="1.0" encoding="utf-8"?>
<svg xmlns="http://www.w3.org/2000/svg" fill="none" height="20" viewBox="0 0 185 20" width="185">
<path d="M1.38086 1.33789V10.0456C1.38086 11.5225 2.18253 12.8794 3.47444 13.5964L12.5579 18.6271L12.6165 18.661L21.7432 13.5994C23.0351 12.8825 23.8368 11.5256 23.8368 10.0517V1.33789H1.38086ZM15.9989 11.6548C15.3206 12.0302 14.559 12.2271 13.7851 12.2271L5.36144 12.2025L10.0851 9.57481C10.5414 9.31943 11.0533 9.18712 11.5774 9.18404L20.4944 9.15635L16.002 11.6579L15.9989 11.6548ZM15.8694 7.35328C15.4131 7.60866 14.9013 7.74097 14.3771 7.74404L5.46011 7.77174L9.95253 5.2702C10.6309 4.89481 11.3924 4.69789 12.1664 4.69789L20.59 4.72251L15.8664 7.3502L15.8694 7.35328Z" fill="white"/>
<path d="M178.463 7.69139H164.15C163.497 7.69139 162.966 7.16216 162.966 6.50985C162.966 5.85754 163.497 5.32831 164.15 5.32831H182.774V1.36523H164.15C161.308 1.36523 158.995 3.67293 158.995 6.50985C158.995 9.34677 161.308 11.6545 164.15 11.6545H178.463C179.117 11.6545 179.647 12.1929 179.647 12.8422C179.647 13.4945 179.117 14.0022 178.463 14.0022H159.8V17.9652H178.463C181.306 17.9652 183.619 15.6822 183.619 12.8452C183.619 10.0083 181.306 7.69447 178.463 7.69447V7.69139Z" fill="white"/>
<path d="M70.5592 1.375H62.8046C58.2136 1.375 54.4766 5.10423 54.4766 9.68577C54.4766 14.2673 58.2136 17.9965 62.8046 17.9965H70.5592C75.1503 17.9965 78.8873 14.2673 78.8873 9.68577C78.8873 5.10423 75.1503 1.375 70.5592 1.375ZM70.5592 14.0304H62.8046C60.4058 14.0304 58.4541 12.0827 58.4541 9.68885C58.4541 7.295 60.4058 5.34731 62.8046 5.34731H70.5592C72.9581 5.34731 74.9098 7.295 74.9098 9.68885C74.9098 12.0827 72.9581 14.0304 70.5592 14.0304Z" fill="white"/>
<path d="M148.993 1.375H141.238C136.647 1.375 132.91 5.10423 132.91 9.68577C132.91 14.2673 136.647 17.9965 141.238 17.9965H148.993C153.584 17.9965 157.321 14.2673 157.321 9.68577C157.321 5.10423 153.584 1.375 148.993 1.375ZM148.993 14.0304H141.238C138.839 14.0304 136.888 12.0827 136.888 9.68885C136.888 7.295 138.839 5.34731 141.238 5.34731H148.993C151.392 5.34731 153.343 7.295 153.343 9.68885C153.343 12.0827 151.392 14.0304 148.993 14.0304Z" fill="white"/>
<path d="M126.577 1.39258V7.67873H111.043V1.39258H107.065V17.9741H111.043V11.648H126.577V17.9741H130.554V1.39258H126.577Z" fill="white"/>
<path d="M47.8256 7.69139H33.5128C32.8591 7.69139 32.3288 7.16216 32.3288 6.50985C32.3288 5.85754 32.8591 5.32831 33.5128 5.32831H52.1361V1.36523H33.5128C30.6699 1.36523 28.3574 3.67293 28.3574 6.50985C28.3574 9.34677 30.6699 11.6545 33.5128 11.6545H47.8256C48.4793 11.6545 49.0096 12.1929 49.0096 12.8422C49.0096 13.4914 48.4793 14.0022 47.8256 14.0022H29.1622V17.9652H47.8256C50.6684 17.9652 52.9809 15.6822 52.9809 12.8452C52.9809 10.0083 50.6684 7.69447 47.8256 7.69447V7.69139Z" fill="white"/>
<path d="M98.5617 1.3937H85.1523H83.549H81.1748V17.9752H85.1523V13.5322H98.5617C101.916 13.5322 104.645 10.8091 104.645 7.46139C104.645 4.1137 101.916 1.39062 98.5617 1.39062V1.3937ZM98.5617 9.56293H85.1523V5.35986H98.5617C99.7241 5.35986 100.668 6.30139 100.668 7.46139C100.668 8.62139 99.7241 9.56293 98.5617 9.56293Z" fill="white"/>
</svg>